<?xml version="1.0"?>
<svg xmlns="http://www.w3.org/2000/svg" xmlns:xlink="http://www.w3.org/1999/xlink" xmlns:svgjs="http://svgjs.com/svgjs" version="1.1" width="512" height="512" x="0" y="0" viewBox="0 0 24 24" style="enable-background:new 0 0 512 512" xml:space="preserve"><g><path xmlns="http://www.w3.org/2000/svg" d="m11 23a1 1 0 1 1 1 1 1 1 0 0 1 -1-1zm4.535-2.122a1 1 0 0 0 0-1.414 5 5 0 0 0 -7.07 0 1 1 0 0 0 1.414 1.414 3.074 3.074 0 0 1 4.242 0 1 1 0 0 0 1.414 0zm2.829-2.828a1 1 0 0 0 0-1.414 9.01 9.01 0 0 0 -12.728 0 1 1 0 0 0 1.414 1.414 7.011 7.011 0 0 1 9.9 0 1 1 0 0 0 1.414 0zm-12.377 4.111a1 1 0 0 0 -.826-1.148 3.809 3.809 0 0 1 -3.124-2.939 3.473 3.473 0 0 1 1.823-3.594 2 2 0 0 0 .805-2.69 6 6 0 1 1 11.059-4.514 3.1 3.1 0 0 0 2.045 2.052 5.972 5.972 0 0 1 4.212 6.211 5.687 5.687 0 0 1 -3.41 4.725 1 1 0 0 0 .858 1.806 7.638 7.638 0 0 0 4.547-6.376 7.96 7.96 0 0 0 -5.62-8.277 1.089 1.089 0 0 1 -.722-.734 8 8 0 0 0 -15.489.841 7.78 7.78 0 0 0 .778 5.19 5.453 5.453 0 0 0 -2.866 5.641 5.826 5.826 0 0 0 4.782 4.632 1 1 0 0 0 1.148-.826z" fill="#d7d7d7" data-original="#000000"/></g></svg>
