<?xml version="1.0"?>
<svg xmlns="http://www.w3.org/2000/svg" xmlns:xlink="http://www.w3.org/1999/xlink" xmlns:svgjs="http://svgjs.com/svgjs" version="1.1" width="512" height="512" x="0" y="0" viewBox="0 0 24 24" style="enable-background:new 0 0 512 512" xml:space="preserve"><g><path xmlns="http://www.w3.org/2000/svg" d="m8 0h-4a4 4 0 0 0 -4 4v1a4 4 0 0 0 4 4h1v2h-2a1 1 0 0 0 0 2h6a1 1 0 0 0 0-2h-2v-2h1a4 4 0 0 0 4-4v-1a4 4 0 0 0 -4-4zm2 5a2 2 0 0 1 -2 2h-4a2 2 0 0 1 -2-2v-1a2 2 0 0 1 2-2h4a2 2 0 0 1 2 2zm10 6h-2a4 4 0 0 0 -4 4v5a4 4 0 0 0 4 4h2a4 4 0 0 0 4-4v-5a4 4 0 0 0 -4-4zm2 9a2 2 0 0 1 -2 2h-2a2 2 0 0 1 -2-2v-5a2 2 0 0 1 2-2h2a2 2 0 0 1 2 2zm-8-16a1 1 0 0 1 1-1h2a3 3 0 0 1 3 3v2a1 1 0 0 1 -2 0v-2a1 1 0 0 0 -1-1h-2a1 1 0 0 1 -1-1zm-2 16a1 1 0 0 1 -1 1h-3a3 3 0 0 1 -3-3v-2a1 1 0 0 1 2 0v2a1 1 0 0 0 1 1h3a1 1 0 0 1 1 1zm8 0a1 1 0 1 1 -1-1 1 1 0 0 1 1 1z" fill="#d7d7d7" data-original="#000000"/></g></svg>
